# xmcd
#
# Track frame offsets:
#	150
#	18535
#	36236
#	61957
#	81906
#	97264
#	115004
#	132546
#	150400
#	166885
#	185263
#	205029
#	222261
#	239465
#	255931
#	273503
#	285266
#	304130
#	319855
#	338470
#
# Disc length: 4749 seconds
#
# Revision: 1
# Processed by: cddbd v1.5.2PL0 Copyright (c) Steve Scherf et al.
# Submitted via: EasyCDDAExtractor 2010.6.0.0
#
DISCID=14128b14
DTITLE=Various Artist - Testament Van De Eighties  cd 5
DYEAR=2011
DGENRE=Pop
TTITLE0=Pat Benatar - Love Is A Battlefield
TTITLE1=Frankie Goes To Hollywood - Relax
TTITLE2=Queen - Radio Ga Ga
TTITLE3=Nik Kershaw - Wouldn´t It Be Good
TTITLE4=James Ingram and Michael McDonald - Yah Mo B There
TTITLE5=Rockwell - Somebody´s Watching Me
TTITLE6=Talk Talk - It´s My Life
TTITLE7=Wang Chung - Dance Hall Days
TTITLE8=Sade - Your Love Is King
TTITLE9=Pointer Sisters - Automatic
TTITLE10=Duran Duran - The Reflex
TTITLE11=Wham! - Wake Me Up Before You Go-Go
TTITLE12=Tina Turner - What´s Love Got To Do With It
TTITLE13=Level 42 - Hot Water
TTITLE14=The Cars - Drive
TTITLE15=The Everly Brothers - On The Wings Of A Nightingale
TTITLE16=Dan Hartman - I Can Dream About You
TTITLE17=Status Quo - The Wanderer
TTITLE18=Jim Diamond - I Should Have Known Better
TTITLE19=ZZ Top - Gimme All Your Lovin´
EXTD=
EXTT0=
EXTT1=
EXTT2=
EXTT3=
EXTT4=
EXTT5=
EXTT6=
EXTT7=
EXTT8=
EXTT9=
EXTT10=
EXTT11=
EXTT12=
EXTT13=
EXTT14=
EXTT15=
EXTT16=
EXTT17=
EXTT18=
EXTT19=
PLAYORDER=
